#!OML:ASF E:\id_vita\Project 1\Capture day 1\Session 1\Female.ASF
:FULLY-SPECIFIED
:DEGREES
544
root 34.8752 16.4905 0.424909 -154.472 -79.2686 164.863
lowerback -7.68472 1.27918 -5.78113
upperback -4.39269 1.91096 -1.28847
thorax -0.401564 0.974836 2.0445
lowerneck 17.398 2.5646 -2.47742
upperneck -24.5311 3.86611 4.69449
head -10.9473 1.28075 1.58139
rclavicle 1.1368e-014 1.59028e-014
rhumerus -36.3277 -10.1963 -87.2499
rradius 36.3735
rwrist 8.82255
rhand -15.2142 8.61678
rfingers 7.12502
rthumb 10.9581 -21.0772
lclavicle 1.1368e-014 1.59028e-014
lhumerus -12.3765 15.4809 85.9764
lradius 22.7344
lwrist -27.437
lhand -7.74609 22.7909
lfingers 7.12502
lthumb 18.1531 51.9638
rfemur -25.7959 -5.23393 18.031
rtibia 46.0878
rfoot -11.1692 -10.8066
rtoes -24.4544
lfemur -18.0114 -2.43022 -25.0915
ltibia 35.0919
lfoot -21.8101 4.74807
ltoes -0.696108
545
root 34.8747 16.4945 0.440294 -154.602 -79.3712 164.957
lowerback -7.91935 1.1525 -5.67657
upperback -4.28828 1.76042 -1.22886
thorax -0.149525 0.891522 2.04571
lowerneck 17.4666 2.66176 -2.62898
upperneck -24.5988 3.9573 4.68384
head -10.9928 1.33562 1.59007
rclavicle 8.44835e-015 -3.04141e-014
rhumerus -36.0371 -10.1423 -87.305
rradius 36.0573
rwrist 8.92457
rhand -14.9156 8.69935
rfingers 7.12502
rthumb 11.2461 -20.9792
lclavicle 8.44835e-015 -3.04141e-014
lhumerus -11.9692 15.6775 86.0723
lradius 22.9944
lwrist -28.4663
lhand -8.31158 21.4479
lfingers 7.12502
lthumb 17.609 50.6704
rfemur -25.8208 -5.33717 18.0176
rtibia 46.189
rfoot -11.1166 -10.7998
rtoes -25.1996
lfemur -17.8768 -2.59358 -25.0791
ltibia 34.8665
lfoot -21.7617 4.82427
ltoes -1.92891
546
root 34.874 16.4962 0.453549 -154.731 -79.4606 165.004
lowerback -7.98629 1.0517 -5.60252
upperback -4.23854 1.63018 -1.20793
thorax -0.0487296 0.822804 2.01919
lowerneck 17.6386 2.69561 -2.54229
upperneck -24.7778 3.99119 4.53049
head -11.0893 1.35592 1.5154
rclavicle 4.98577e-014 -2.08724e-014
rhumerus -35.8144 -10.3786 -87.3129
rradius 35.686
rwrist 9.29704
rhand -14.5447 8.54783
rfingers 7.12502
rthumb 11.6039 -21.1109
lclavicle 4.98577e-014 -2.08724e-014
lhumerus -11.7089 15.3157 86.1578
lradius 23.1389
lwrist -28.3326
lhand -8.25698 21.2887
lfingers 7.12502
lthumb 17.6616 50.5065
rfemur -25.7497 -5.44638 17.994
rtibia 46.2576
rfoot -10.9928 -10.6542
rtoes -25.6528
lfemur -17.692 -2.61488 -25.1277
ltibia 34.6423
lfoot -21.6973 5.12202
ltoes -4.40839
547
root 34.873 16.4977 0.466997 -154.994 -79.4628 165.149
lowerback -7.97921 1.03198 -5.55003
upperback -4.23196 1.60068 -1.19849
thorax -0.0419489 0.807297 1.99745
lowerneck 17.8131 2.73559 -2.59321
upperneck -24.8835 4.04275 4.56023
head -11.1673 1.37636 1.52702
rclavicle 2.3966e-014 -7.35503e-015
rhumerus -35.7197 -10.5776 -87.2672
rradius 35.3504
rwrist 9.60043
rhand -14.8601 8.90823
rfingers 7.12502
rthumb 11.2997 -20.7674
lclavicle 2.3966e-014 -7.35503e-015
lhumerus -11.6459 14.5257 86.3243
lradius 23.189
lwrist -27.0394
lhand -6.92601 22.6193
lfingers 7.12502
lthumb 18.942 51.717
rfemur -25.6443 -5.49188 17.9406
rtibia 46.2819
rfoot -10.7118 -10.5063
rtoes -26.2684
lfemur -17.4704 -2.69299 -25.1908
ltibia 34.4349
lfoot -21.5917 5.45964
ltoes -5.78086
548
root 34.8748 16.5089 0.481461 -155.527 -79.4847 165.634
lowerback -7.87836 1.0008 -5.46919
upperback -4.20775 1.55078 -1.1269
thorax -0.0678227 0.783622 2.02072
lowerneck 17.5063 2.79201 -2.8193
upperneck -24.7742 4.0834 4.67558
head -11.0757 1.40654 1.60264
rclavicle -1.98847e-014 1.70955e-014
rhumerus -35.4995 -10.5565 -87.2443
rradius 35.0012
rwrist 9.74536
rhand -15.3136 9.60402
rfingers 7.12502
rthumb 10.8622 -20.0951
lclavicle -1.98847e-014 1.70955e-014
lhumerus -11.4595 14.2202 86.5338
lradius 23.5979
lwrist -27.43
lhand -8.74045 21.4292
lfingers 7.12502
lthumb 17.1963 50.6883
rfemur -25.6094 -5.48914 17.9664
rtibia 46.2714
rfoot -10.6012 -10.337
rtoes -26.1853
lfemur -17.2902 -3.18059 -25.0504
ltibia 34.2079
lfoot -21.4803 5.15493
ltoes -2.95111
549
root 34.8759 16.5219 0.494404 -156.081 -79.5087 166.159
lowerback -7.84476 1.01086 -5.33192
upperback -4.27382 1.54787 -1.1216
thorax -0.150256 0.782297 1.94762
lowerneck 17.7626 2.78695 -2.81524
upperneck -24.8888 4.08786 4.70601
head -11.17 1.39954 1.61172
rclavicle 1.0225e-014 -3.57812e-015
rhumerus -35.507 -10.771 -87.1851
rradius 34.6261
rwrist 9.98743
rhand -15.1894 9.54731
rfingers 7.12502
rthumb 10.9821 -20.1454
lclavicle 1.0225e-014 -3.57812e-015
lhumerus -11.5646 13.4651 86.6767
lradius 23.7637
lwrist -26.4424
lhand -9.66118 20.9852
lfingers 7.12502
lthumb 16.3099 50.3193
rfemur -25.5835 -5.47493 18.0158
rtibia 46.2353
rfoot -10.1023 -10.2024
rtoes -26.9365
lfemur -17.0982 -3.62469 -24.8968
ltibia 33.9405
lfoot -21.3735 4.85023
ltoes -0.160691
550
root 34.873 16.523 0.506788 -156.21 -79.4695 166.202
lowerback -7.50047 1.05525 -5.49017
upperback -4.57636 1.57115 -1.03006
thorax -0.66531 0.811809 2.11957
lowerneck 18.0808 2.74968 -2.77258
upperneck -24.6939 4.0297 4.63109
head -11.1537 1.38328 1.58019
rclavicle -1.2511e-014 2.22639e-014
rhumerus -36.017 -10.9551 -86.8395
rradius 34.3955
rwrist 10.1736
rhand -15.2815 9.3228
rfingers 7.12502
rthumb 10.8932 -20.3746
lclavicle -1.2511e-014 2.22639e-014
lhumerus -12.1846 13.054 86.7907
lradius 24.3823
lwrist -27.2701
lhand -5.45102 24.1304
lfingers 7.12502
lthumb 20.36 53.0831
rfemur -25.5101 -5.49629 17.9503
rtibia 46.2018
rfoot -9.46542 -10.0864
rtoes -28.1437
lfemur -16.859 -3.76926 -24.9703
ltibia 33.6405
lfoot -21.6775 5.16117
ltoes -1.0165
551
root 34.8671 16.5256 0.518658 -156.179 -79.4109 166.1
lowerback -7.51668 1.08081 -5.46411
upperback -4.50857 1.60928 -1.12717
thorax -0.584776 0.826535 2.0086
lowerneck 17.5935 2.70776 -2.54938
upperneck -24.4426 4.01684 4.57818
head -10.9577 1.37226 1.52621
rclavicle 8.4235e-015 -6.16232e-015
rhumerus -35.8505 -11.3393 -86.8701
rradius 34.1071
rwrist 10.4662
rhand -15.9169 9.49804
rfingers 7.12502
rthumb 10.2803 -20.2307
lclavicle 8.4235e-015 -6.16232e-015
lhumerus -12.0802 12.2205 86.8251
lradius 24.705
lwrist -26.8065
lhand -5.89879 22.6169
lfingers 7.12502
lthumb 19.9296 51.615
rfemur -25.4364 -5.54237 17.8462
rtibia 46.1853
rfoot -9.65617 -9.85286
rtoes -26.1631
lfemur -16.6045 -3.87421 -25.0894
ltibia 33.3143
lfoot -21.0076 5.53867
ltoes -3.79096
552
root 34.8599 16.5318 0.530611 -156.505 -79.332 166.374
lowerback -7.9577 1.08034 -5.45812
upperback -4.19499 1.66138 -1.11992
thorax -0.0189256 0.837285 2.03175
lowerneck 17.2975 2.70478 -2.44812
upperneck -24.6118 4.01418 4.48612
head -10.9582 1.36912 1.48097
rclavicle -1.71079e-014 3.57812e-015
rhumerus -35.2898 -11.6037 -86.8343
rradius 33.6464
rwrist 10.7804
rhand -16.2359 9.69889
rfingers 7.12502
rthumb 9.97255 -20.0449
lclavicle -1.71079e-014 3.57812e-015
lhumerus -11.6528 11.3082 87.0778
lradius 24.7532
lwrist -25.2048
lhand -6.70754 22.7409
lfingers 7.12502
lthumb 19.1521 51.8179
rfemur -25.3754 -5.55911 17.7955
rtibia 46.1922
rfoot -9.71006 -9.51322
rtoes -22.9536
lfemur -16.3262 -4.02017 -25.1255
ltibia 32.9643
lfoot -20.7553 5.70481
ltoes -3.37515
553
root 34.8579 16.5328 0.544706 -156.649 -79.3441 166.406
lowerback -7.98273 1.04955 -5.49371
upperback -4.10585 1.63232 -1.05114
thorax 0.0864556 0.821808 2.12254
lowerneck 17.1444 2.72956 -2.59625
upperneck -24.5999 4.02396 4.56018
head -10.9293 1.37933 1.53275
rclavicle 3.54085e-016 1.92821e-014
rhumerus -35.0769 -11.7142 -86.6435
rradius 33.196
rwrist 10.9263
rhand -15.8861 9.60067
rfingers 7.12502
rthumb 10.31 -20.1266
lclavicle 3.54085e-016 1.92821e-014
lhumerus -11.6323 11.2494 87.1738
lradius 25.2113
lwrist -26.2
lhand -9.85274 21.137
lfingers 7.12502
lthumb 16.1255 50.4861
rfemur -25.2638 -5.63772 17.7344
rtibia 46.1988
rfoot -9.44685 -9.19014
rtoes -21.6405
lfemur -16.0406 -4.18815 -25.1805
ltibia 32.6424
lfoot -20.9112 5.84489
ltoes -1.84333
554
root 34.8589 16.5379 0.557914 -156.812 -79.3623 166.458
lowerback -7.86605 1.00859 -5.44813
upperback -4.13722 1.56547 -1.02546
thorax -0.00455416 0.790912 2.11555
lowerneck 17.2172 2.73407 -2.68198
upperneck -24.5885 4.01603 4.59912
head -10.9418 1.3789 1.56174
rclavicle -2.58296e-014 1.03368e-014
rhumerus -35.0647 -11.895 -86.4909
rradius 32.8107
rwrist 10.9563
rhand -15.1622 9.16042
rfingers 7.12502
rthumb 11.0083 -20.5309
lclavicle -2.58296e-014 1.03368e-014
lhumerus -11.8835 10.944 87.2082
lradius 25.6128
lwrist -26.3783
lhand -10.5574 20.8465
lfingers 7.12502
lthumb 15.4468 50.2493
rfemur -25.1704 -5.65752 17.6738
rtibia 46.1943
rfoot -10.0103 -9.04124
rtoes -23.2259
lfemur -15.7931 -4.26952 -25.2289
ltibia 32.3563
lfoot -21.0972 5.98021
ltoes -0.966164
555
root 34.8545 16.5458 0.569758 -157.488 -79.26 167.115
lowerback -7.89567 1.05062 -5.24636
upperback -4.29943 1.59567 -1.07505
thorax -0.150674 0.805215 1.95207
lowerneck 17.8274 2.66474 -2.47933
upperneck -24.7361 3.94876 4.46938
head -11.106 1.33825 1.48665
rclavicle -2.28105e-014 -1.33186e-014
rhumerus -35.3918 -12.3611 -86.2973
rradius 32.4113
rwrist 11.2385
rhand -14.8278 9.14355
rfingers 7.12502
rthumb 11.3308 -20.5304
lclavicle -2.28105e-014 -1.33186e-014
lhumerus -12.4018 10.5204 87.1167
lradius 25.8919
lwrist -26.2831
lhand -10.5018 21.2687
lfingers 7.12502
lthumb 15.5004 50.6673
rfemur -25.1628 -5.57488 17.6888
rtibia 46.1865
rfoot -9.64891 -9.14346
rtoes -22.2734
lfemur -15.5866 -4.34144 -25.1957
ltibia 32.0674
lfoot -21.1197 6.12346
ltoes -0.537284
556
root 34.8468 16.5493 0.581588 -157.731 -79.1832 167.368
lowerback -8.0508 1.07202 -5.17403
upperback -4.40447 1.61845 -1.10464
thorax -0.172673 0.814332 1.8848
lowerneck 18.1219 2.63391 -2.33273
upperneck -24.6698 3.92049 4.35108
head -11.1316 1.32732 1.41944
rclavicle -3.03519e-014 1.72943e-014
rhumerus -35.6801 -12.8461 -86.0033
rradius 32.0615
rwrist 12.0676
rhand -15.0239 9.56675
rfingers 7.12502
rthumb 11.1417 -20.1175
lclavicle -3.03519e-014 1.72943e-014
lhumerus -12.8785 10.1755 87.0632
lradius 26.1628
lwrist -26.092
lhand -10.9267 21.006
lfingers 7.12502
lthumb 15.0911 50.4359
rfemur -25.1449 -5.58668 17.6505
rtibia 46.1582
rfoot -9.87296 -9.22319
rtoes -24.1554
lfemur -15.3851 -4.52073 -25.2202
ltibia 31.7855
lfoot -21.0505 6.20324
ltoes 0.328
